<?xml version="1.0" encoding="UTF-8"?><svg id="Layer_6" xmlns="http://www.w3.org/2000/svg" viewBox="0 0 637.15 332.28"><defs><style>.cls-1{fill:#fe5c00;}</style></defs><g><path class="cls-1" d="M296.63,112.57c-2.45,5.63-6.72,9.94-11.19,13.87-4.54,3.89-9.39,7.43-14.35,10.88-9.89,6.92-20.04,13.7-29.65,21.37-19.09,14.95-37.26,35.08-41.45,59.76,4.5-8.33,10.63-15.45,18.28-20.85,15.41-10.98,34.17-15.13,51.14-23.73,8.58-4.4,17.32-10.31,22.06-18.94-4.34,3.49-7.49,7.92-10.29,12.38-9.1,16.26-14.46,23.78-30.4,34.25,13.42-3.72,24.22-12.65,31.12-24.72,4.18-6.91,7.48-14.07,9.56-21.92-7.32,6.37-15.75,10.14-24.5,13.48-25.77,9.41-60.26,19.25-66.98,50.04,10.59-21.77,27.23-39.15,45.76-54.45,14.19-12.62,47.28-33.1,50.87-51.43h0Z"/><path class="cls-1" d="M73.07,292.79c3.35-13.94,4.48-28.33,7.31-42.37,5.02-26.37,12.76-53.05,29.11-74.68,16.91-20.42,48.81-31.89,73.44-41.09,33.5-12.46,68.77-22.05,99.6-40.71,6.09-3.84,11.93-8.13,17-13.21-5.39,4.74-11.45,8.59-17.71,11.99-31.86,16.5-67.18,24.05-101.34,34.48-25.32,8.06-61.7,17.68-78.95,38.97-17.73,23.9-24.57,54.44-26.87,83.5-1.31,14.36-.64,28.77-1.59,43.12h0Z"/><g><path class="cls-1" d="M299.53,68.48c.42-5.46,1.61-10.81,3.77-15.72,2.14-4.94,5.36-9.25,8.25-13.9,5.93-9.19,9.94-21.3,7.01-32.27-1.49,5.46-2.95,10.51-4.99,15.32-1.97,4.83-4.52,9.4-6.8,14.37-4.57,9.92-7.99,21.12-7.24,32.2h0Z"/><path class="cls-1" d="M309.94,57.04c-4.9,17.13-5.81,35.22-5.23,52.96,.35,26.49,6.55,52.69,1.75,78.83-3.22,17.28-9.22,34.09-12.68,51.44-1.74,8.74-2.85,17.71-2.23,26.59,.69-8.86,2.56-17.47,4.97-25.93,4.8-17.09,11.5-33.58,14.96-51.14,3.78-17.67,1.45-35.88-.38-53.62-2.81-26.19-5.66-52.91-1.15-79.12h0Z"/></g><path class="cls-1" d="M309.27,231.99c-1.58,5.25-4.05,9.95-6.23,14.97-7.42,15.91-8.65,32.98,2.2,47.69-5.54-17.7-4.85-29.11,.8-46.58,1.56-5.18,3.3-10.6,3.23-16.08h0Z"/><path class="cls-1" d="M318.57,322.75c1.2-5.82,1.37-11.8,.73-17.7-1.14-11.6-6.56-22.3-6.96-33.84-.29-5.63,.44-11.36,1.35-17.15l-.12-.04c-7.08,16.57-4.57,26.73-.25,43.33,2.08,8.41,3.38,16.79,5.26,25.39h0Z"/><path class="cls-1" d="M298.75,93.03c-15.57,26.21-72.49,50.68-100.14,66.69-33.64,19.21-69.39,51.42-83.03,88.42,11.35-12.3,10.53-30.46,15.41-45.12,4.93-14.88,16.22-26.53,27.29-37.51-3.45,2.08-6.84,4.28-10.04,6.75-24.78,18.89-26.02,35.33-30.84,63.93-.62,3.88-1.35,7.77-1.82,11.94,7.11-7.27,13.54-15.14,20.15-22.81,19.29-22.87,39.99-45.01,65.91-60.44,8.59-5.25,17.42-10.25,26.17-15.39,21.53-13.11,59.63-34.19,70.94-56.46h0Z"/></g><g><path class="cls-1" d="M340.51,112.57c2.45,5.63,6.72,9.94,11.19,13.87,4.54,3.89,9.39,7.43,14.35,10.88,9.89,6.92,20.04,13.7,29.65,21.37,19.09,14.95,37.26,35.08,41.45,59.76-4.5-8.33-10.63-15.45-18.28-20.85-15.41-10.98-34.17-15.13-51.14-23.73-8.58-4.4-17.32-10.31-22.06-18.94,4.34,3.49,7.49,7.92,10.29,12.38,9.1,16.26,14.46,23.78,30.4,34.25-13.42-3.72-24.22-12.65-31.12-24.72-4.18-6.91-7.48-14.07-9.56-21.92,7.32,6.37,15.75,10.14,24.5,13.48,25.77,9.41,60.26,19.25,66.98,50.04-10.59-21.77-27.23-39.15-45.76-54.45-14.19-12.62-47.28-33.1-50.87-51.43h0Z"/><path class="cls-1" d="M564.07,292.79c-3.35-13.94-4.48-28.33-7.31-42.37-5.02-26.37-12.76-53.05-29.11-74.68-16.91-20.42-48.81-31.89-73.44-41.09-33.5-12.46-68.77-22.05-99.6-40.71-6.09-3.84-11.93-8.13-17-13.21,5.39,4.74,11.45,8.59,17.71,11.99,31.86,16.5,67.18,24.05,101.34,34.48,25.32,8.06,61.7,17.68,78.95,38.97,17.73,23.9,24.57,54.44,26.87,83.5,1.31,14.36,.64,28.77,1.59,43.12h0Z"/><g><path class="cls-1" d="M337.61,68.48c-.42-5.46-1.61-10.81-3.77-15.72-2.14-4.94-5.36-9.25-8.25-13.9-5.93-9.19-9.94-21.3-7.01-32.27,1.49,5.46,2.95,10.51,4.99,15.32,1.97,4.83,4.52,9.4,6.8,14.37,4.57,9.92,7.99,21.12,7.24,32.2h0Z"/><path class="cls-1" d="M327.21,57.04c4.9,17.13,5.81,35.22,5.23,52.96-.35,26.49-6.55,52.69-1.75,78.83,3.22,17.28,9.22,34.09,12.68,51.44,1.74,8.74,2.85,17.71,2.23,26.59-.69-8.86-2.56-17.47-4.97-25.93-4.8-17.09-11.5-33.58-14.96-51.14-3.78-17.67-1.45-35.88,.38-53.62,2.81-26.19,5.66-52.91,1.15-79.12h0Z"/></g><path class="cls-1" d="M327.88,231.99c1.58,5.25,4.05,9.95,6.23,14.97,7.42,15.91,8.65,32.98-2.2,47.69,5.54-17.7,4.85-29.11-.8-46.58-1.56-5.18-3.3-10.6-3.23-16.08h0Z"/><path class="cls-1" d="M318.57,322.75c-1.2-5.82-1.37-11.8-.73-17.7,1.14-11.6,6.56-22.3,6.96-33.84,.29-5.63-.44-11.36-1.35-17.15l.12-.04c7.08,16.57,4.57,26.73,.25,43.33-2.08,8.41-3.38,16.79-5.26,25.39h0Z"/><path class="cls-1" d="M338.39,93.03c15.57,26.21,72.49,50.68,100.14,66.69,33.64,19.21,69.39,51.42,83.03,88.42-11.35-12.3-10.53-30.46-15.41-45.12-4.93-14.88-16.22-26.53-27.29-37.51,3.45,2.08,6.84,4.28,10.04,6.75,24.78,18.89,26.02,35.33,30.84,63.93,.62,3.88,1.35,7.77,1.82,11.94-7.11-7.27-13.54-15.14-20.15-22.81-19.29-22.87-39.99-45.01-65.91-60.44-8.59-5.25-17.42-10.25-26.17-15.39-21.53-13.11-59.63-34.19-70.94-56.46h0Z"/></g></svg>